name rise45.9887peak57.8056fall74.9286.mot
datacolumns 19
datarows 30
range 20.73660200000000 20.78492200000000
endheader
time	ground_force1_vx	ground_force1_vy	ground_force1_vz	ground_force1_px	ground_force1_py	ground_force1_pz	ground_force2_vx	ground_force2_vy	ground_force2_vz	ground_force2_px	ground_force2_py	ground_force2_pz	ground_torque1_x	ground_torque1_y	ground_torque1_z	ground_torque2_x	ground_torque2_y	ground_torque2_z	
20.73660200000000	67.87370600000000	785.52230899999995	61.10865200000000	0.31764100000000	0.00000000000000	0.12757800000000	0.00000000000000	0.00000000000000	0.00000000000000	0.00000000000000	0.00000000000000	0.00000000000000	0.00000000000000	20.67090100000000	0.00000000000000	0.00000000000000	0.00000000000000	0.00000000000000	
20.73826100000000	67.31842100000000	787.51122499999997	61.05900600000000	0.31693900000000	0.00000000000000	0.12751700000000	0.00000000000000	0.00000000000000	0.00000000000000	0.00000000000000	0.00000000000000	0.00000000000000	0.00000000000000	20.65357500000000	0.00000000000000	0.00000000000000	0.00000000000000	0.00000000000000	
20.73992300000000	66.76328200000000	789.35355300000003	61.00835800000000	0.31626700000000	0.00000000000000	0.12745700000000	0.00000000000000	0.00000000000000	0.00000000000000	0.00000000000000	0.00000000000000	0.00000000000000	0.00000000000000	20.63855200000000	0.00000000000000	0.00000000000000	0.00000000000000	0.00000000000000	
20.74159200000000	66.20816200000000	791.04709200000002	60.95651000000000	0.31562300000000	0.00000000000000	0.12739700000000	0.00000000000000	0.00000000000000	0.00000000000000	0.00000000000000	0.00000000000000	0.00000000000000	0.00000000000000	20.62571500000000	0.00000000000000	0.00000000000000	0.00000000000000	0.00000000000000	
20.74325700000000	65.65288700000001	792.58991500000002	60.90320700000000	0.31500400000000	0.00000000000000	0.12733800000000	0.00000000000000	0.00000000000000	0.00000000000000	0.00000000000000	0.00000000000000	0.00000000000000	0.00000000000000	20.61490400000000	0.00000000000000	0.00000000000000	0.00000000000000	0.00000000000000	
20.74492400000000	65.09724600000000	793.98038199999996	60.84814400000000	0.31440900000000	0.00000000000000	0.12727900000000	0.00000000000000	0.00000000000000	0.00000000000000	0.00000000000000	0.00000000000000	0.00000000000000	0.00000000000000	20.60592900000000	0.00000000000000	0.00000000000000	0.00000000000000	0.00000000000000	
20.74658500000000	64.54098999999999	795.21715600000005	60.79097300000000	0.31383500000000	0.00000000000000	0.12722100000000	0.00000000000000	0.00000000000000	0.00000000000000	0.00000000000000	0.00000000000000	0.00000000000000	0.00000000000000	20.59856200000000	0.00000000000000	0.00000000000000	0.00000000000000	0.00000000000000	
20.74825400000000	63.98384600000000	796.29921600000000	60.73130200000000	0.31327900000000	0.00000000000000	0.12716500000000	0.00000000000000	0.00000000000000	0.00000000000000	0.00000000000000	0.00000000000000	0.00000000000000	0.00000000000000	20.59254600000000	0.00000000000000	0.00000000000000	0.00000000000000	0.00000000000000	
20.74992000000000	63.42551600000000	797.22586600000000	60.66871000000000	0.31274000000000	0.00000000000000	0.12710900000000	0.00000000000000	0.00000000000000	0.00000000000000	0.00000000000000	0.00000000000000	0.00000000000000	0.00000000000000	20.58760000000000	0.00000000000000	0.00000000000000	0.00000000000000	0.00000000000000	
20.75158900000000	62.86568500000000	797.99674500000003	60.60274700000000	0.31221400000000	0.00000000000000	0.12705400000000	0.00000000000000	0.00000000000000	0.00000000000000	0.00000000000000	0.00000000000000	0.00000000000000	0.00000000000000	20.58341600000000	0.00000000000000	0.00000000000000	0.00000000000000	0.00000000000000	
20.75325800000000	62.30403000000000	798.61183500000004	60.53294500000000	0.31169900000000	0.00000000000000	0.12700000000000	0.00000000000000	0.00000000000000	0.00000000000000	0.00000000000000	0.00000000000000	0.00000000000000	0.00000000000000	20.57966900000000	0.00000000000000	0.00000000000000	0.00000000000000	0.00000000000000	
20.75492200000000	61.74022000000000	799.07146299999999	60.45881700000000	0.31119100000000	0.00000000000000	0.12694800000000	0.00000000000000	0.00000000000000	0.00000000000000	0.00000000000000	0.00000000000000	0.00000000000000	0.00000000000000	20.57601400000000	0.00000000000000	0.00000000000000	0.00000000000000	0.00000000000000	
20.75658900000000	61.17392500000000	799.37630899999999	60.37987200000000	0.31068900000000	0.00000000000000	0.12689700000000	0.00000000000000	0.00000000000000	0.00000000000000	0.00000000000000	0.00000000000000	0.00000000000000	0.00000000000000	20.57209500000000	0.00000000000000	0.00000000000000	0.00000000000000	0.00000000000000	
20.75826100000000	60.60482000000000	799.52740500000004	60.29561300000000	0.31019000000000	0.00000000000000	0.12684800000000	0.00000000000000	0.00000000000000	0.00000000000000	0.00000000000000	0.00000000000000	0.00000000000000	0.00000000000000	20.56754500000000	0.00000000000000	0.00000000000000	0.00000000000000	0.00000000000000	
20.75992800000000	60.03259100000000	799.52613699999995	60.20554700000000	0.30969000000000	0.00000000000000	0.12680000000000	0.00000000000000	0.00000000000000	0.00000000000000	0.00000000000000	0.00000000000000	0.00000000000000	0.00000000000000	20.56199000000000	0.00000000000000	0.00000000000000	0.00000000000000	0.00000000000000	
20.76160200000000	59.45694100000000	799.37423899999999	60.10918800000000	0.30918600000000	0.00000000000000	0.12675400000000	0.00000000000000	0.00000000000000	0.00000000000000	0.00000000000000	0.00000000000000	0.00000000000000	0.00000000000000	20.55505400000000	0.00000000000000	0.00000000000000	0.00000000000000	0.00000000000000	
20.76325600000000	58.87759000000000	799.07379900000001	60.00606600000000	0.30867700000000	0.00000000000000	0.12671000000000	0.00000000000000	0.00000000000000	0.00000000000000	0.00000000000000	0.00000000000000	0.00000000000000	0.00000000000000	20.54635700000000	0.00000000000000	0.00000000000000	0.00000000000000	0.00000000000000	
20.76492200000000	58.29428500000000	798.62724200000002	59.89572500000000	0.30815800000000	0.00000000000000	0.12666700000000	0.00000000000000	0.00000000000000	0.00000000000000	0.00000000000000	0.00000000000000	0.00000000000000	0.00000000000000	20.53552500000000	0.00000000000000	0.00000000000000	0.00000000000000	0.00000000000000	
20.76660300000000	57.70679900000000	798.03733499999998	59.77773600000000	0.30762700000000	0.00000000000000	0.12662700000000	0.00000000000000	0.00000000000000	0.00000000000000	0.00000000000000	0.00000000000000	0.00000000000000	0.00000000000000	20.52219000000000	0.00000000000000	0.00000000000000	0.00000000000000	0.00000000000000	
20.76825300000000	57.11494000000000	797.30717200000004	59.65169400000000	0.30708200000000	0.00000000000000	0.12658800000000	0.00000000000000	0.00000000000000	0.00000000000000	0.00000000000000	0.00000000000000	0.00000000000000	0.00000000000000	20.50599200000000	0.00000000000000	0.00000000000000	0.00000000000000	0.00000000000000	
20.76992200000000	56.51854900000000	796.44016699999997	59.51722700000000	0.30652000000000	0.00000000000000	0.12655200000000	0.00000000000000	0.00000000000000	0.00000000000000	0.00000000000000	0.00000000000000	0.00000000000000	0.00000000000000	20.48658200000000	0.00000000000000	0.00000000000000	0.00000000000000	0.00000000000000	
20.77159100000000	55.91750700000000	795.44004399999994	59.37399500000000	0.30593800000000	0.00000000000000	0.12651800000000	0.00000000000000	0.00000000000000	0.00000000000000	0.00000000000000	0.00000000000000	0.00000000000000	0.00000000000000	20.46362600000000	0.00000000000000	0.00000000000000	0.00000000000000	0.00000000000000	
20.77325400000000	55.31173700000000	794.31082500000002	59.22169900000000	0.30533300000000	0.00000000000000	0.12648600000000	0.00000000000000	0.00000000000000	0.00000000000000	0.00000000000000	0.00000000000000	0.00000000000000	0.00000000000000	20.43680700000000	0.00000000000000	0.00000000000000	0.00000000000000	0.00000000000000	
20.77492200000000	54.70120200000000	793.05681300000003	59.06007600000000	0.30470400000000	0.00000000000000	0.12645700000000	0.00000000000000	0.00000000000000	0.00000000000000	0.00000000000000	0.00000000000000	0.00000000000000	0.00000000000000	20.40582900000000	0.00000000000000	0.00000000000000	0.00000000000000	0.00000000000000	
20.77659100000000	54.08591500000000	791.68258600000001	58.88891100000000	0.30404800000000	0.00000000000000	0.12643000000000	0.00000000000000	0.00000000000000	0.00000000000000	0.00000000000000	0.00000000000000	0.00000000000000	0.00000000000000	20.37041300000000	0.00000000000000	0.00000000000000	0.00000000000000	0.00000000000000	
20.77825500000000	53.46593200000000	790.19297400000005	58.70802800000000	0.30336200000000	0.00000000000000	0.12640600000000	0.00000000000000	0.00000000000000	0.00000000000000	0.00000000000000	0.00000000000000	0.00000000000000	0.00000000000000	20.33030800000000	0.00000000000000	0.00000000000000	0.00000000000000	0.00000000000000	
20.77992500000000	52.84136000000000	788.59304499999996	58.51730100000000	0.30264500000000	0.00000000000000	0.12638400000000	0.00000000000000	0.00000000000000	0.00000000000000	0.00000000000000	0.00000000000000	0.00000000000000	0.00000000000000	20.28528600000000	0.00000000000000	0.00000000000000	0.00000000000000	0.00000000000000	
20.78158500000000	52.21235100000000	786.88809200000003	58.31665100000000	0.30189500000000	0.00000000000000	0.12636500000000	0.00000000000000	0.00000000000000	0.00000000000000	0.00000000000000	0.00000000000000	0.00000000000000	0.00000000000000	20.23514600000000	0.00000000000000	0.00000000000000	0.00000000000000	0.00000000000000	
20.78325200000000	51.57911000000000	785.08361100000002	58.10604600000000	0.30111100000000	0.00000000000000	0.12634900000000	0.00000000000000	0.00000000000000	0.00000000000000	0.00000000000000	0.00000000000000	0.00000000000000	0.00000000000000	20.17971500000000	0.00000000000000	0.00000000000000	0.00000000000000	0.00000000000000	
20.78492200000000	50.94188700000000	783.18528400000002	57.88550300000000	0.30028900000000	0.00000000000000	0.12633600000000	0.00000000000000	0.00000000000000	0.00000000000000	0.00000000000000	0.00000000000000	0.00000000000000	0.00000000000000	20.11885100000000	0.00000000000000	0.00000000000000	0.00000000000000	0.00000000000000	
